<?xml version="1.0" encoding="utf-8"?>
<svg viewBox="373.897 259.666 44.505 35.662" shape-rendering="geometricPrecision" text-rendering="geometricPrecision" image-rendering="optimizeQuality" fill-rule="evenodd" clip-rule="evenodd" xmlns="http://www.w3.org/2000/svg">
  <g id="Capa_x0020_1">
    <path fill="#DEBCA0" d="M404.486 287.807l-0.1693 0.3387 -0.3387 0.1693 -0.3387 0.1694 -11.177 0 -0.508 -0.1694 -0.1693 -0.1693 -0.1694 -0.1694 -0.1693 -0.1693 0 -1.1855 0.1693 -0.1693 0 -0.3387 0.3387 0 0.3387 -0.1694 11.3463 0 0.5081 0.1694 0.1693 0.1693 0.1693 0.1694 0.1694 0.508 0 0.5081 -0.1694 0.3387zm-21.1684 -17.7815l0.1693 -0.3387 0.1694 -0.1694 0.1693 -0.1693 0.3387 -0.1694 1.1854 0 0.1694 0.1694 0.1693 0.1693 0.1694 0.1694 0.1693 0.1693 0.1694 0.1694 0.1693 0.1693 0.1694 0.3387 0.1693 0.1693 0.1694 0.1694 0.1693 0.1693 0.1694 0.1694 0.1693 0.3387 0.1694 0.1693 0.1693 0.1694 0.1694 0.1693 0.1693 0.1694 0.1693 0.3387 0.1694 0.1693 0.1693 0.1694 0.1694 0.1693 0.1693 0.3387 0.1694 0.1694 0.1693 0.1693 0.1694 0.1693 0.1693 0.1694 0.1694 0.3387 0.1693 0.1693 0.1694 0.1694 0.1693 0.1693 0.1694 0.1694 0.1693 0.3387 0.1694 0.1693 0.1693 0.1694 0.1694 0.1693 0.1693 0.3387 0.1694 0.5081 0 0.3387 -0.1694 0.508 -0.1693 0.1693 -0.1694 0.1694 -0.1693 0.3387 -0.1694 0.1693 -0.1693 0.1694 -0.1694 0.1693 -0.1693 0.1694 -0.1694 0.3387 -0.1693 0.1693 -0.1694 0.1694 -0.1693 0.1693 -0.1694 0.1694 -0.1693 0.3387 -0.1694 0.1693 -0.1693 0.1694 -0.1694 0.1693 -0.1693 0.1694 -0.1694 0.3387 -0.1693 0.1693 -0.1693 0.1693 -0.1694 0.1694 -0.1693 0.1693 -0.1694 0.3387 -0.1693 0.1694 -0.1694 0.1693 -0.1693 0.1694 -0.1694 0.1693 -0.1693 0.3387 -0.1694 0.1694 -0.1693 0.1693 -0.1694 0.1694 -0.1693 0.1693 -0.1694 0.3387 -0.3387 0.1694 -0.508 0.1693 -0.3387 0 -0.5081 -0.1693 -0.1693 -0.1694 -0.1693 -0.1693 -0.1694 -0.1694 -0.1693 -0.3387 0 -0.8467 0.1693 -0.3387 0.1694 -0.1694 0.1693 -0.3387 0.1693 -0.1693 0.1694 -0.1694 0.1693 -0.1693 0.1694 -0.1693 0.1693 -0.3387 0.1694 -0.1694 0.1693 -0.1693 0.1694 -0.1694 0.1693 -0.3387 0.1694 -0.1693 0.1693 -0.1694 0.1694 -0.1693 0.1693 -0.1694 0.1694 -0.3387 0.1693 -0.1693 0.1694 -0.1694 0.1693 -0.1693 0.1694 -0.1694 0.1693 -0.3387 0.1694 -0.1693 0.1693 -0.1694 0.1694 -0.1693 0.1693 -0.3387 0.1694 -0.1693 0.1693 -0.1694 0 -0.1693 -0.1693 -0.1694 -0.1694 -0.3387 -0.1693 -0.1693 -0.1694 -0.1694 -0.1693 -0.1693 -0.1694 -0.1694 -0.1693 -0.3387 -0.1694 -0.1693 -0.1693 -0.1694 -0.1694 -0.1693 -0.1693 -0.1694 -0.1694 -0.3387 -0.1693 -0.1693 -0.1694 -0.1694 -0.1693 -0.1693 -0.1694 -0.1693 -0.1693 -0.3387 -0.1694 -0.1694 -0.1693 -0.1693 -0.1694 -0.1694 -0.1693 -0.1693 -0.1694 -0.3387 -0.1693 -0.1694 -0.1694 -0.1693 -0.1693 -0.1694 -0.1693 -0.1693 -0.1694 -0.3387 -0.1693 -0.3387 0 -0.8467zm-5.5885 -8.6368l-0.3387 0.1694 -0.3387 0.1693 -0.3387 0.1694 -0.1694 0.1693 -0.1693 0.1694 -0.1694 0.1693 -0.1693 0.1693 -0.1694 0.1694 -0.1693 0.1693 -0.1693 0.3387 -0.1694 0.1694 -0.1693 0.3387 -0.1694 0.508 -0.1693 1.0161 0 25.0635 0.1693 1.0161 0.1694 0.508 0.1693 0.3387 0.1694 0.1694 0.1693 0.3387 0.1693 0.1693 0.1694 0.1693 0.1693 0.1694 0.1694 0.1693 0.1693 0.1694 0.1694 0.1693 0.3387 0.1694 0.3387 0.1693 0.3387 0.1694 0.508 0.1693 36.0711 0 0.5081 -0.1693 0.3387 -0.1694 0.3387 -0.1693 0.1693 -0.1694 0.3387 -0.1693 0.1694 -0.1694 0.1693 -0.1693 0.1693 -0.1694 0.1694 -0.1693 0.1693 -0.3387 0.1694 -0.1693 0.1693 -0.3387 0.1694 -0.3387 0.1693 -0.6774 0 -26.4183 -0.1693 -0.508 -0.1694 -0.5081 -0.1693 -0.3387 -0.1694 -0.1693 -0.1693 -0.1694 -0.1694 -0.3387 -0.1693 -0.1693 -0.1693 -0.1693 -0.3387 -0.1694 -0.1694 -0.1693 -0.1693 -0.1694 -0.3387 -0.1693 -0.5081 -0.1694 -0.508 -0.1693 -35.9018 0 -0.508 0.1693z"/>
  </g>
</svg>