<?xml version="1.0" encoding="utf-8"?>
<svg viewBox="45.692 190.013 125.86 38.449" shape-rendering="geometricPrecision" text-rendering="geometricPrecision" image-rendering="optimizeQuality" fill-rule="evenodd" clip-rule="evenodd" xmlns="http://www.w3.org/2000/svg">
  <g id="Capa_x0020_1">
    <g id="_168788104">
      <path id="_162304104" fill="#4C4C4C" d="M76.5182 217.441l-0.1693 0.3387 -0.3387 0.1693 -0.3387 0.1694 -11.177 0 -0.508 -0.1694 -0.1693 -0.1693 -0.1694 -0.1694 -0.1693 -0.1693 0 -1.1855 0.1693 -0.1693 0 -0.3387 0.3387 0 0.3387 -0.1694 11.3463 0 0.5081 0.1694 0.1693 0.1693 0.1693 0.1694 0.1694 0.508 0 0.5081 -0.1694 0.3387zm-21.1684 -17.7815l0.1693 -0.3387 0.1694 -0.1694 0.1693 -0.1693 0.3387 -0.1694 1.1854 0 0.1694 0.1694 0.1693 0.1693 0.1694 0.1694 0.1693 0.1693 0.1694 0.1694 0.1693 0.1693 0.1694 0.3387 0.1693 0.1693 0.1694 0.1694 0.1693 0.1693 0.1694 0.1694 0.1693 0.3387 0.1694 0.1693 0.1693 0.1694 0.1694 0.1693 0.1693 0.1694 0.1693 0.3387 0.1694 0.1693 0.1693 0.1694 0.1694 0.1693 0.1693 0.3387 0.1694 0.1694 0.1693 0.1693 0.1694 0.1693 0.1693 0.1694 0.1694 0.3387 0.1693 0.1693 0.1694 0.1694 0.1693 0.1693 0.1694 0.1694 0.1693 0.3387 0.1694 0.1693 0.1693 0.1694 0.1694 0.1693 0.1693 0.3387 0.1694 0.5081 0 0.3387 -0.1694 0.508 -0.1693 0.1693 -0.1694 0.1694 -0.1693 0.3387 -0.1694 0.1693 -0.1693 0.1694 -0.1694 0.1693 -0.1693 0.1694 -0.1694 0.3387 -0.1693 0.1693 -0.1694 0.1694 -0.1693 0.1693 -0.1694 0.1694 -0.1693 0.3387 -0.1694 0.1693 -0.1693 0.1694 -0.1694 0.1693 -0.1693 0.1694 -0.1694 0.3387 -0.1693 0.1693 -0.1693 0.1693 -0.1694 0.1694 -0.1693 0.1693 -0.1694 0.3387 -0.1693 0.1694 -0.1694 0.1693 -0.1693 0.1694 -0.1694 0.1693 -0.1693 0.3387 -0.1694 0.1694 -0.1693 0.1693 -0.1694 0.1694 -0.1693 0.1693 -0.1694 0.3387 -0.3387 0.1694 -0.508 0.1693 -0.3387 0 -0.5081 -0.1693 -0.1693 -0.1694 -0.1693 -0.1693 -0.1694 -0.1694 -0.1693 -0.3387 0 -0.8467 0.1693 -0.3387 0.1694 -0.1694 0.1693 -0.3387 0.1693 -0.1693 0.1694 -0.1694 0.1693 -0.1693 0.1694 -0.1693 0.1693 -0.3387 0.1694 -0.1694 0.1693 -0.1693 0.1694 -0.1694 0.1693 -0.3387 0.1694 -0.1693 0.1693 -0.1694 0.1694 -0.1693 0.1693 -0.1694 0.1694 -0.3387 0.1693 -0.1693 0.1694 -0.1694 0.1693 -0.1693 0.1694 -0.1694 0.1693 -0.3387 0.1694 -0.1693 0.1693 -0.1694 0.1694 -0.1693 0.1693 -0.3387 0.1694 -0.1693 0.1693 -0.1694 0 -0.1693 -0.1693 -0.1694 -0.1694 -0.3387 -0.1693 -0.1693 -0.1694 -0.1694 -0.1693 -0.1693 -0.1694 -0.1694 -0.1693 -0.3387 -0.1694 -0.1693 -0.1693 -0.1694 -0.1694 -0.1693 -0.1693 -0.1694 -0.1694 -0.3387 -0.1693 -0.1693 -0.1694 -0.1694 -0.1693 -0.1693 -0.1694 -0.1693 -0.1693 -0.3387 -0.1694 -0.1694 -0.1693 -0.1693 -0.1694 -0.1694 -0.1693 -0.1693 -0.1694 -0.3387 -0.1693 -0.1694 -0.1694 -0.1693 -0.1693 -0.1694 -0.1693 -0.1693 -0.1694 -0.3387 -0.1693 -0.3387 0 -0.8467zm-5.5885 -8.6368l-0.3387 0.1694 -0.3387 0.1693 -0.3387 0.1694 -0.1694 0.1693 -0.1693 0.1694 -0.1694 0.1693 -0.1693 0.1693 -0.1694 0.1694 -0.1693 0.1693 -0.1693 0.3387 -0.1694 0.1694 -0.1693 0.3387 -0.1694 0.508 -0.1693 1.0161 0 25.0635 0.1693 1.0161 0.1694 0.508 0.1693 0.3387 0.1694 0.1694 0.1693 0.3387 0.1693 0.1693 0.1694 0.1693 0.1693 0.1694 0.1694 0.1693 0.1693 0.1694 0.1694 0.1693 0.3387 0.1694 0.3387 0.1693 0.3387 0.1694 0.508 0.1693 36.0711 0 0.5081 -0.1693 0.3387 -0.1694 0.3387 -0.1693 0.1693 -0.1694 0.3387 -0.1693 0.1694 -0.1694 0.1693 -0.1693 0.1693 -0.1694 0.1694 -0.1693 0.1693 -0.3387 0.1694 -0.1693 0.1693 -0.3387 0.1694 -0.3387 0.1693 -0.6774 0 -26.4183 -0.1693 -0.508 -0.1694 -0.5081 -0.1693 -0.3387 -0.1694 -0.1693 -0.1693 -0.1694 -0.1694 -0.3387 -0.1693 -0.1693 -0.1693 -0.1693 -0.3387 -0.1694 -0.1694 -0.1693 -0.1693 -0.1694 -0.3387 -0.1693 -0.5081 -0.1694 -0.508 -0.1693 -35.9018 0 -0.508 0.1693z"/>
      <polygon id="_162304392" fill="#4C4C4C" points="148.322,224.046 150.862,224.046 151.031,218.457 151.37,218.288 151.539,218.118 152.555,218.118 152.894,218.118 152.894,218.457 153.064,224.046 155.604,224.046 155.773,218.288 156.112,218.118 157.128,218.118 157.467,218.118 157.467,218.457 157.636,224.046 160.176,224.046 160.176,217.61 160.007,217.102 159.837,216.764 159.668,216.594 159.499,216.425 159.329,216.256 159.16,216.086 158.821,215.917 158.483,215.748 156.451,215.748 155.942,215.917 155.604,216.086 155.434,216.256 155.265,216.425 154.926,216.425 154.757,216.256 154.588,216.086 154.249,215.917 153.91,215.748 151.878,215.748 151.37,215.917 151.201,216.086 150.862,216.256 150.523,216.425 150.523,215.748 148.322,215.748 "/>
      <path id="_162315024" fill="#4C4C4C" d="M127.323 218.965l0.1694 -0.3387 0.1693 -0.3387 0.1694 -0.1693 0.3387 -0.1694 0.508 -0.1693 0.8467 0 0.3495 0.0001 -0.1801 3.8949 -0.3387 0.1693 -1.3548 0 -0.1693 -0.1693 -0.3387 0 0 -0.3387 -0.1694 -0.5081 0 -1.8628zm-0.1693 -3.0483l-0.5081 0.1694 -0.3387 0.1693 -0.1693 0.1694 -0.3387 0.1693 -0.1694 0.1694 -0.1693 0.1693 -0.1694 0.3387 -0.1693 0.1694 -0.1693 0.3387 -0.1694 0.3387 -0.1693 0.6773 0 2.7096 0.1693 0.6774 0.1694 0.3387 0.1693 0.3387 0.1693 0.1693 0.1694 0.1694 0.1693 0.1693 0.1694 0.1694 0.1693 0.1693 0.3387 0.1694 0.3387 0.1693 0.5081 0.1694 1.3548 0 0.508 -0.1694 0.3387 -0.1693 0.3387 -0.1694 0 0.8468 -0.1694 0.3387 -0.1693 0.1693 -0.3387 0.1694 -0.508 0.1693 -1.6935 0 -1.0161 -0.1693 -0.6774 0 0 2.0321 0.6774 0.1694 1.3548 0.1693 1.5241 0 1.1854 -0.1693 0.5081 -0.1694 0.3387 -0.1693 0.3387 -0.1694 0.1693 -0.1693 0.1694 -0.1694 0.1693 -0.1693 0.1694 -0.1693 0.1693 -0.1694 0.1694 -0.3387 0.1693 -0.3387 0.1694 -0.508 0.1693 -1.3548 0 -7.4513 -0.508 -0.1694 -1.0161 -0.1693 -3.2176 0 -0.6774 0.1693z"/>
      <path id="_162316224" fill="#4C4C4C" d="M119.871 204.401l0.1694 -0.3387 0.1693 -0.3387 0.1694 -0.1694 0.3387 -0.1693 0.6773 -0.1693 0.5081 0 0.5188 0 -0.1801 3.895 -0.3387 0.1693 -1.3548 0 -0.3387 -0.1693 -0.1693 -0.3387 -0.1694 -0.3387 0 -2.0322zm-0.1693 -3.0483l-0.5081 0.1694 -0.3387 0.1693 -0.1693 0.1694 -0.1694 0.1693 -0.3387 0.1694 -0.1693 0.1693 -0.1694 0.3387 -0.1693 0.1694 -0.1694 0.3387 -0.1693 0.3386 -0.1694 0.6774 0 2.7096 0.1694 0.6774 0.1693 0.3387 0.1694 0.3387 0.1693 0.1693 0.1694 0.1694 0.1693 0.1693 0.1694 0.1694 0.1693 0.1693 0.1694 0.1694 0.3387 0.1693 0.6774 0.1694 1.3548 0 0.508 -0.1694 0.3387 -0.1693 0.3387 -0.1694 0 0.8468 -0.1694 0.3387 -0.1693 0.1693 -0.3387 0.1694 -0.508 0.1693 -1.6935 0 -1.0161 -0.1693 -0.6774 0 0 2.0321 0.508 0.1694 1.3548 0.1693 1.8628 0 1.0161 -0.1693 0.5081 -0.1694 0.3387 -0.1693 0.3387 -0.1694 0.1693 -0.1693 0.1694 -0.1694 0.1693 -0.1693 0.1694 -0.1694 0.1693 -0.1693 0.1694 -0.3387 0.1693 -0.3387 0.1694 -0.508 0 -8.8061 -0.5081 -0.1694 -0.8467 -0.1693 -3.2176 0 -0.6774 0.1693z"/>
      <path id="_162307800" fill="#4C4C4C" d="M104.122 204.063l0.1693 -0.6774 0.1694 -0.508 0.1693 -0.5081 0.1693 -0.508 0.1694 -0.6774 0.1693 -0.5081 0.1694 0.3387 0.1693 0.5081 0.1694 0.508 0.1693 0.6774 0.1694 0.5081 0.1693 0.508 0.1694 0.508 0.1693 0.3387 -2.5641 -0.0046 0.1933 -0.5034zm-1.0161 -5.2498l-0.1694 0.5081 -0.1693 0.508 -0.1694 0.6774 -0.1693 0.508 -0.1694 0.5081 -0.1693 0.508 -0.1694 0.5081 -0.1693 0.508 -0.1694 0.508 -0.1693 0.5081 -0.1694 0.508 -0.1693 0.5081 -0.1694 0.6774 -0.1693 0.508 -0.1693 0.5081 -0.1694 0.508 -0.1693 0.508 -0.1694 0.5081 -0.1693 0.508 -0.1694 0.5081 0 0.3387 2.5402 0 0.1694 -0.1694 0.1693 -0.508 0.1694 -0.5081 0.1693 -0.6774 0.1694 -0.508 0.1693 -0.508 3.895 -0.1694 0 0.5081 0.1694 0.508 0.1693 0.508 0.1694 0.5081 0.1693 0.6774 0.1694 0.3387 2.5402 0 0 -0.6774 -0.1694 -0.5081 -0.1693 -0.508 -0.1694 -0.5081 -0.1693 -0.508 -0.1694 -0.508 -0.1693 -0.5081 -0.1694 -0.508 -0.1693 -0.5081 -0.1694 -0.508 -0.1693 -0.6774 -0.1693 -0.508 -0.1694 -0.5081 -0.1693 -0.508 -0.1694 -0.5081 -0.1693 -0.508 -0.1694 -0.5081 -0.1693 -0.508 -0.1694 -0.508 -0.1693 -0.5081 -0.1694 -0.6774 -3.895 0 -0.1693 0.3387z"/>
      <path id="_162312264" fill="#4C4C4C" d="M105.646 221.167l-0.1694 0.3387 0 0.3387 -0.3387 0 -0.1693 0.1694 -0.6774 0.1693 -0.8467 0 -0.3495 -0.0001 0.1801 -3.8949 0.1694 -0.1693 0.508 -0.1694 0.8467 0 0.3387 0.1694 0.1694 0.1693 0.1693 0.1694 0.1694 0.3386 0.1693 0.8468 0 0.6774 -0.1693 0.8467zm-5.0804 6.2659l2.5402 0 0 -3.2176 2.3708 0 0.5081 -0.1694 0.508 -0.1693 0.3387 -0.1694 0.1694 -0.1693 0.1693 -0.1694 0.1694 -0.1693 0.1693 -0.1694 0.1694 -0.1693 0.1693 -0.1694 0.1694 -0.3386 0.1693 -0.3387 0.1694 -0.5081 0.1693 -0.8467 0 -1.6935 -0.1693 -0.8467 -0.1694 -0.5081 -0.1693 -0.3387 -0.1694 -0.3387 -0.1693 -0.1693 -0.1694 -0.1694 -0.1693 -0.1693 -0.1694 -0.1694 -0.1693 -0.1693 -0.3387 -0.1694 -0.5081 -0.1693 -2.0321 0 -0.5081 0.1693 -0.1693 0.1694 -0.3387 0.1693 -0.1694 0.1694 -0.1693 -0.6774 -2.2015 0 0 11.685z"/>
      <polygon id="_162314880" fill="#4C4C4C" points="138.161,201.353 137.822,201.522 137.653,201.692 137.483,201.861 137.314,201.692 137.145,201.353 134.943,201.353 134.943,209.651 137.653,209.651 137.822,203.893 137.992,203.724 138.33,203.555 139.516,203.555 139.685,203.724 139.854,204.063 140.024,209.651 142.564,209.651 142.564,203.216 142.395,202.708 142.225,202.369 142.056,202.03 141.887,201.861 141.717,201.692 141.379,201.522 141.209,201.353 140.701,201.184 138.669,201.184 "/>
      <path id="_168787120" fill="#4C4C4C" d="M118.178 218.796l0.1694 -0.3386 0.1693 -0.3387 0.1694 -0.1694 0.508 -0.1693 0.5081 0 0.508 0.1693 0.1694 0.1694 0.1693 0.1693 0.1694 0.508 0 2.3709 -0.1694 0.5081 -0.1693 0.1693 -0.1694 0.1694 -0.508 0.1693 -0.5081 0 -0.508 -0.1693 -0.1694 -0.1694 -0.1693 -0.3387 -0.1694 -0.3387 0 -2.3709zm-0.508 -2.8789l-0.5081 0.1694 -0.1693 0.1693 -0.3387 0.1694 -0.1693 0.1693 -0.1694 0.1694 -0.1693 0.1693 -0.1694 0.3387 -0.1693 0.3387 -0.1694 0.3387 -0.1693 0.5081 0 3.0482 0.1693 0.5081 0.1694 0.3387 0.1693 0.3386 0.1694 0.1694 0.1693 0.3387 0.1694 0.1693 0.1693 0.1694 0.3387 0.1693 0.1693 0.1694 0.3387 0.1693 0.6774 0.1694 2.7096 0 0.508 -0.1694 0.3387 -0.1693 0.1694 -0.1694 0.3387 -0.1693 0.1693 -0.1694 0.1694 -0.1693 0.1693 -0.1694 0.1694 -0.3387 0.1693 -0.1693 0.1694 -0.508 0.1693 -0.5081 0.1694 -1.1854 0 -0.6774 -0.1694 -1.3548 -0.1693 -0.508 -0.1694 -0.3387 -0.1693 -0.1694 -0.1694 -0.3387 -0.1693 -0.1693 -0.1694 -0.1694 -0.1693 -0.1693 -0.3387 -0.1694 -0.1694 -0.1693 -0.3387 -0.1694 -0.6773 -0.1693 -2.5403 0 -0.508 0.1693z"/>
      <polygon id="_168787192" fill="#4C4C4C" points="157.975,201.353 157.636,201.522 157.467,201.692 156.959,201.861 156.959,201.353 154.757,201.353 154.757,209.651 157.297,209.651 157.467,204.063 157.636,203.893 157.805,203.724 158.144,203.555 159.329,203.555 159.499,203.724 159.668,204.063 159.837,209.651 162.378,209.651 162.378,203.385 162.208,202.708 162.039,202.369 161.87,202.2 161.7,201.861 161.531,201.692 161.192,201.522 161.023,201.353 160.515,201.184 158.483,201.184 "/>
      <path id="_168787264" fill="#4C4C4C" d="M142.225 221.336l0.1694 -0.3387 0.508 -0.1694 1.3742 -0.1684 -0.1887 1.3539 -0.3387 0.1693 -0.5081 0.1694 -0.3387 0 -0.508 -0.1694 -0.1694 -0.1693 0 -0.6774zm-1.8628 -5.4192l-0.1693 0.1694 0 1.8628 0.6774 0 1.1854 -0.1693 0.8467 0 0.6774 0.1693 0.3387 0.1694 0.1694 0.3387 0.1693 0.6773 -1.6935 0 -1.0161 0.1694 -0.508 0.1693 -0.3387 0.1694 -0.3387 0.1693 -0.1693 0.1694 -0.1694 0.1693 -0.1693 0.1694 -0.1694 0.3387 -0.1693 0.508 0 1.1855 0.1693 0.6773 0.1694 0.1694 0.1693 0.3387 0.1694 0.1693 0.3387 0.1694 0.1693 0.1693 0.5081 0.1694 2.2015 0 0.3387 -0.1694 0.3387 -0.1693 0.1693 -0.1694 0.3387 -0.1693 0 0.508 2.2015 0 0 -5.5884 -0.1693 -0.8468 -0.1694 -0.508 -0.1693 -0.1694 -0.1694 -0.3387 -0.1693 -0.1693 -0.1694 -0.1694 -0.3386 -0.1693 -0.3387 -0.1694 -0.6774 -0.1693 -3.2176 0 -0.8468 0.1693z"/>
      <path id="_168787456" fill="#4C4C4C" d="M164.071 221.336l0 -0.3387 0.3387 0 0.3387 -0.1694 1.3742 -0.1684 -0.1888 1.3539 -0.3386 0.1693 -0.5081 0.1694 -0.3387 0 -0.508 -0.1694 -0.1694 -0.3387 0 -0.508zm-1.8628 -5.4192l-0.1694 0.1694 0 1.8628 0.6774 0 1.1855 -0.1693 1.0161 0 0.6774 0.1693 0.1693 0.1694 0.1693 0.3387 0.1694 0.6773 -1.6935 0 -1.0161 0.1694 -0.508 0.1693 -0.3387 0.1694 -0.1694 0.1693 -0.3387 0.1694 -0.1693 0.1693 -0.1693 0.3387 -0.1694 0.3387 -0.1693 0.6774 0 0.6774 0.1693 0.6774 0.1694 0.3387 0.1693 0.1693 0.1693 0.1694 0.1694 0.1693 0.1693 0.1694 0.1694 0.1693 0.508 0.1694 2.2016 0 0.3387 -0.1694 0.3386 -0.1693 0.1694 -0.1694 0.1693 -0.1693 0.1694 0.508 2.2015 0 0 -5.9271 -0.1693 -0.6774 -0.1694 -0.3387 -0.1693 -0.3387 -0.1694 -0.1694 -0.1693 -0.1693 -0.1694 -0.1694 -0.3387 -0.1693 -0.3387 -0.1694 -0.6774 -0.1693 -3.2176 0 -0.8467 0.1693z"/>
      <path id="_168787528" fill="#4C4C4C" d="M129.016 204.063l0.1694 -0.5081 0.1693 -0.3386 0.1693 -0.1694 1.1855 0 0.1693 0.1694 0.1694 0.1693 0.1693 0.3387 0.1694 1.0161 -2.5634 -0.0031 0.1925 -0.6743zm-0.508 -2.7096l-0.3387 0.1694 -0.3387 0.1693 -0.1694 0.1694 -0.1693 0.1693 -0.1694 0.1694 -0.1693 0.1693 -0.1694 0.1694 -0.1693 0.3387 -0.1694 0.3387 -0.1693 0.3386 -0.1694 0.8468 0 2.0322 0.1694 0.8467 0.1693 0.508 0.1694 0.3387 0.1693 0.1694 0.1694 0.1693 0.1693 0.3387 0.3387 0.1694 0.1694 0.1693 0.3387 0.1694 0.3387 0.1693 0.6774 0.1694 3.5563 0 0.6773 -0.1694 0 -2.0322 -0.3386 0 -1.0161 0.1694 -1.6935 0 -0.6774 -0.1694 -0.1694 -0.1693 -0.3386 0 0 -0.3387 -0.1694 -0.508 4.7417 -0.1694 0 -2.3709 -0.1693 -0.508 -0.1694 -0.508 -0.1693 -0.3387 -0.1693 -0.1694 -0.1694 -0.1693 -0.1693 -0.1694 -0.1694 -0.1693 -0.1693 -0.1694 -0.1694 -0.1693 -0.3387 -0.1694 -0.508 -0.1693 -2.3709 0 -0.508 0.1693z"/>
      <path id="_168787600" fill="#4C4C4C" d="M166.273 206.603l0.1694 -0.1693 0.508 -0.1694 1.3742 -0.1684 -0.1887 1.3538 -0.3387 0.1694 -0.5081 0.1693 -0.508 0 -0.3387 -0.1693 -0.1694 -0.1694 0 -0.8467zm-1.8628 -5.2498l-0.1693 0.1694 0 1.8628 0.6774 0 1.1854 -0.1693 0.6774 0 0.8467 0.1693 0.1694 0.1693 0.1693 0.1694 0.1694 0.508 0.1693 0.3387 -1.5241 0 -1.1854 0.1694 -0.5081 0.1693 -0.3387 0.1694 -0.3387 0.1693 -0.1693 0.1694 -0.1694 0.1693 -0.1693 0.1694 -0.1694 0.3387 -0.1693 0.3387 0 1.6934 0.1693 0.3387 0.1694 0.3387 0.1693 0.1694 0.1694 0.1693 0.1693 0.1694 0.3387 0.1693 0.3387 0.1694 2.3709 0 0.3387 -0.1694 0.3387 -0.1693 0.1693 -0.1694 0.1694 0.1694 0.1693 0.3387 2.0322 0 0 -6.4352 -0.1694 -0.5081 -0.1693 -0.3387 -0.1694 -0.1693 -0.1693 -0.1694 -0.1693 -0.1693 -0.1694 -0.1694 -0.1693 -0.1693 -0.5081 -0.1694 -0.508 -0.1693 -3.2176 0 -0.8468 0.1693z"/>
      <polygon id="_168787672" fill="#4C4C4C" points="144.935,199.49 144.766,200.676 144.766,201.353 143.411,201.353 143.411,203.385 144.766,203.385 144.766,207.788 144.935,208.296 145.104,208.635 145.274,208.804 145.443,208.974 145.612,209.143 145.781,209.312 146.12,209.482 146.628,209.651 149.338,209.651 149.507,209.482 149.507,207.45 149.168,207.45 147.983,207.45 147.644,207.28 147.475,206.942 147.306,203.385 149.507,203.385 149.507,201.353 147.306,201.353 147.306,198.474 145.104,198.474 "/>
      <polygon id="_168787744" fill="#4C4C4C" points="114.622,201.353 114.283,201.522 114.114,201.692 113.944,201.861 113.775,201.861 113.605,201.353 111.404,201.353 111.404,209.651 114.114,209.651 114.283,204.063 114.622,203.893 114.96,203.724 116.654,203.555 116.654,201.184 115.13,201.184 "/>
      <polygon id="_168787816" fill="#4C4C4C" points="109.71,224.046 112.251,224.046 112.42,218.796 112.589,218.627 112.759,218.457 113.267,218.288 113.944,218.118 114.283,218.118 114.96,218.118 114.96,215.748 113.267,215.748 112.928,215.917 112.589,216.086 112.42,216.256 112.251,216.425 112.081,216.425 111.912,215.748 109.71,215.748 "/>
      <polygon id="_168787888" fill="#4C4C4C" points="134.096,224.046 136.637,224.046 136.806,218.796 136.976,218.627 137.145,218.457 137.653,218.288 138.33,218.118 138.669,218.118 139.346,218.118 139.346,215.748 137.653,215.748 137.314,215.917 136.976,216.086 136.806,216.256 136.637,216.425 136.467,216.425 136.298,215.748 134.096,215.748 "/>
      <polygon id="_168787960" fill="#4C4C4C" points="150.523,209.651 153.064,209.651 153.064,201.353 150.523,201.353 "/>
      <polygon id="_168788032" fill="#4C4C4C" points="150.693,197.797 150.523,197.966 150.354,198.305 150.354,199.66 150.523,199.829 150.693,199.998 150.862,200.168 151.539,200.337 152.217,200.337 152.894,200.168 153.064,199.998 153.233,199.829 153.402,199.49 153.402,198.305 153.233,198.135 153.064,197.966 152.894,197.797 152.555,197.627 151.031,197.627 "/>
    </g>
  </g>
</svg>